<svg
  width="155"
  height="48"
  viewBox="0 0 155 48"
  fill="none"
  xmlns="http://www.w3.org/2000/svg"
>
  <path
    d="M149.3 48H5.3C2.66 48 0.5 45.84 0.5 43.2V4.8C0.5 2.16 2.66 0 5.3 0H149.3C151.94 0 154.1 2.16 154.1 4.8V43.2C154.1 45.84 151.94 48 149.3 48Z"
    fill="black"
  />
  <path
    d="M32.9 23.7589C32.9 20.0389 36.02 18.2389 36.14 18.1189C34.34 15.5989 31.7 15.2389 30.74 15.1189C28.46 14.8789 26.18 16.4389 25.1 16.4389C23.9 16.4389 22.1 15.1189 20.18 15.1189C17.66 15.1189 15.38 16.5589 14.06 18.8389C11.42 23.3989 13.34 30.1189 15.86 33.8389C17.18 35.6389 18.62 37.6789 20.54 37.5589C22.46 37.4389 23.18 36.3589 25.46 36.3589C27.74 36.3589 28.34 37.5589 30.38 37.5589C32.42 37.5589 33.74 35.7589 34.94 33.9589C36.38 31.9189 36.98 29.8789 36.98 29.7589C36.86 29.6389 32.9 28.1989 32.9 23.7589Z"
    fill="white"
  />
  <path
    d="M29.1798 12.718C30.1398 11.398 30.8598 9.71797 30.7398 7.91797C29.2998 8.03797 27.3798 8.87797 26.4198 10.198C25.4598 11.278 24.6198 13.078 24.8598 14.758C26.4198 14.878 28.0998 13.918 29.1798 12.718Z"
    fill="white"
  />
  <path
    d="M60.2598 37.3198H57.6198L56.1798 32.7598H51.1398L49.8198 37.3198H47.2998L52.3398 21.8398H55.4598L60.2598 37.3198ZM55.6998 30.8398L54.3798 26.7598C54.2598 26.3998 54.0198 25.3198 53.5398 23.8798C53.4198 24.4798 53.1798 25.5598 52.8198 26.7598L51.4998 30.8398H55.6998Z"
    fill="white"
  />
  <path
    d="M73.0998 31.68C73.0998 33.6 72.6198 35.04 71.5398 36.24C70.5798 37.2 69.4998 37.68 68.0598 37.68C66.6198 37.68 65.5398 37.2 64.9398 36.12V42H62.4198V30C62.4198 28.8 62.4198 27.6 62.2998 26.28H64.4598L64.5798 28.08C65.4198 26.76 66.6198 26.04 68.2998 26.04C69.6198 26.04 70.6998 26.52 71.5398 27.6C72.6198 28.56 73.0998 29.88 73.0998 31.68ZM70.5798 31.68C70.5798 30.6 70.3398 29.64 69.8598 29.04C69.3798 28.32 68.6598 27.96 67.6998 27.96C67.0998 27.96 66.4998 28.2 66.0198 28.56C65.5398 28.92 65.1798 29.52 65.0598 30.12C64.9398 30.48 64.9398 30.72 64.9398 30.84V32.76C64.9398 33.6 65.1798 34.2 65.6598 34.8C66.1398 35.4 66.8598 35.64 67.5798 35.64C68.5398 35.64 69.2598 35.28 69.7398 34.56C70.3398 33.84 70.5798 32.88 70.5798 31.68Z"
    fill="white"
  />
  <path
    d="M85.9401 31.68C85.9401 33.6 85.4601 35.04 84.3801 36.24C83.4201 37.2 82.3401 37.68 80.9001 37.68C79.4601 37.68 78.3801 37.2 77.7801 36.12V42H75.2601V30C75.2601 28.8 75.2601 27.6 75.1401 26.28H77.3001L77.4201 28.08C78.2601 26.76 79.4601 26.04 81.1401 26.04C82.4601 26.04 83.5401 26.52 84.3801 27.6C85.4601 28.56 85.9401 29.88 85.9401 31.68ZM83.4201 31.68C83.4201 30.6 83.1801 29.64 82.7001 29.04C82.2201 28.32 81.5001 27.96 80.5401 27.96C79.9401 27.96 79.3401 28.2 78.8601 28.56C78.3801 28.92 78.0201 29.52 77.9001 30.12C77.7801 30.48 77.7801 30.72 77.7801 30.84V32.76C77.7801 33.6 78.0201 34.2 78.5001 34.8C78.9801 35.4 79.7001 35.64 80.4201 35.64C81.3801 35.64 82.1001 35.28 82.5801 34.56C83.1801 33.84 83.4201 32.88 83.4201 31.68Z"
    fill="white"
  />
  <path
    d="M100.34 32.9987C100.34 34.3187 99.8599 35.3987 99.0199 36.2387C98.0599 37.1987 96.6199 37.5587 94.8199 37.5587C93.1399 37.5587 91.8199 37.1987 90.8599 36.5987L91.4599 34.5587C92.5399 35.1587 93.7399 35.5187 95.0599 35.5187C96.0199 35.5187 96.7399 35.2787 97.2199 34.9187C97.6999 34.4387 97.9399 33.9587 97.9399 33.2387C97.9399 32.6388 97.6999 32.0387 97.3399 31.6787C96.8599 31.1987 96.1399 30.8387 95.1799 30.4787C92.4199 29.5187 91.0999 27.9588 91.0999 26.0388C91.0999 24.7188 91.5799 23.7587 92.5399 22.9187C93.4999 22.0787 94.6999 21.7188 96.3799 21.7188C97.8199 21.7188 98.8999 21.9588 99.8599 22.4388L99.2599 24.4787C98.4199 23.9987 97.4599 23.7587 96.2599 23.7587C95.4199 23.7587 94.6999 23.9987 94.2199 24.3587C93.8599 24.7187 93.6199 25.1987 93.6199 25.7987C93.6199 26.3987 93.8599 26.8787 94.3399 27.3587C94.6999 27.7187 95.5399 28.0787 96.6199 28.5587C97.9399 29.0387 98.8999 29.7587 99.6199 30.4787C99.9799 31.0787 100.34 31.9187 100.34 32.9987Z"
    fill="white"
  />
  <path
    d="M108.5 28.0784H105.74V33.4784C105.74 34.7984 106.22 35.5184 107.18 35.5184C107.66 35.5184 108.02 35.5184 108.26 35.3984L108.38 37.3184C107.9 37.5584 107.3 37.5584 106.46 37.5584C105.5 37.5584 104.66 37.3184 104.18 36.7184C103.58 36.1184 103.34 35.1584 103.34 33.7184V28.0784H101.66V26.1584H103.34V24.1184L105.74 23.3984V26.1584H108.5V28.0784Z"
    fill="white"
  />
  <path
    d="M120.86 31.6819C120.86 33.3619 120.38 34.8019 119.42 35.8819C118.34 36.9619 117.02 37.5619 115.34 37.5619C113.66 37.5619 112.34 36.9619 111.38 35.8819C110.42 34.8019 109.94 33.4819 109.94 31.8019C109.94 30.1219 110.42 28.6819 111.5 27.6019C112.46 26.5219 113.9 25.9219 115.58 25.9219C117.26 25.9219 118.58 26.5219 119.54 27.6019C120.38 28.6819 120.86 30.0019 120.86 31.6819ZM118.22 31.8019C118.22 30.7219 117.98 29.8819 117.5 29.1619C117.02 28.3219 116.18 27.8419 115.22 27.8419C114.26 27.8419 113.42 28.3219 112.94 29.1619C112.46 29.8819 112.22 30.8419 112.22 31.8019C112.22 32.8819 112.46 33.7219 112.94 34.4419C113.42 35.2819 114.26 35.7619 115.22 35.7619C116.18 35.7619 116.9 35.2819 117.5 34.4419C117.98 33.7219 118.22 32.7619 118.22 31.8019Z"
    fill="white"
  />
  <path
    d="M128.9 28.3198C128.66 28.3198 128.42 28.1998 128.06 28.1998C127.22 28.1998 126.5 28.5598 126.02 29.1598C125.66 29.7598 125.42 30.4798 125.42 31.3198V37.1998H122.9V29.5198C122.9 28.1998 122.9 27.1198 122.78 26.0398H124.94L125.06 28.1998H125.18C125.42 27.4798 125.9 26.8798 126.38 26.3998C126.98 26.0398 127.58 25.7998 128.18 25.7998C128.42 25.7998 128.66 25.7998 128.78 25.7998V28.3198H128.9Z"
    fill="white"
  />
  <path
    d="M139.94 31.2019C139.94 31.6819 139.94 32.0419 139.82 32.2819H132.38C132.38 33.3619 132.74 34.2019 133.46 34.8019C134.06 35.2819 134.9 35.6419 135.86 35.6419C136.94 35.6419 138.02 35.5219 138.86 35.1619L139.22 36.8419C138.14 37.3219 136.94 37.5619 135.5 37.5619C133.82 37.5619 132.38 37.0819 131.42 36.0019C130.46 35.0419 129.98 33.6019 129.98 31.9219C129.98 30.2419 130.46 28.8019 131.3 27.7219C132.26 26.5219 133.58 25.9219 135.26 25.9219C136.82 25.9219 138.14 26.5219 138.86 27.7219C139.7 28.6819 139.94 29.8819 139.94 31.2019ZM137.66 30.6019C137.66 29.8819 137.54 29.2819 137.18 28.6819C136.7 27.9619 136.1 27.6019 135.26 27.6019C134.42 27.6019 133.82 27.9619 133.34 28.5619C132.98 29.0419 132.74 29.7619 132.62 30.4819H137.66V30.6019Z"
    fill="white"
  />
  <path
    d="M54.9802 12.3617C54.9802 13.6817 54.6202 14.7617 53.7802 15.4817C53.0602 16.0817 51.9802 16.4417 50.5402 16.4417C49.8202 16.4417 49.2202 16.4417 48.7402 16.3217V8.88172C49.3402 8.76172 50.0602 8.76172 50.9002 8.76172C52.2202 8.76172 53.1802 9.00172 53.9002 9.60172C54.5002 10.2017 54.9802 11.1617 54.9802 12.3617ZM53.6602 12.3617C53.6602 11.5217 53.4202 10.8017 52.9402 10.3217C52.4602 9.84172 51.7402 9.60172 50.9002 9.60172C50.5402 9.60172 50.1802 9.60172 49.9402 9.72172V15.3617C50.0602 15.3617 50.4202 15.3617 50.7802 15.3617C51.7402 15.3617 52.4602 15.1217 52.9402 14.6417C53.4202 14.1617 53.6602 13.3217 53.6602 12.3617Z"
    fill="white"
  />
  <path
    d="M61.6998 13.5602C61.6998 14.4002 61.4598 15.1202 60.9798 15.6002C60.4998 16.2002 59.7798 16.4402 58.9398 16.4402C58.0998 16.4402 57.4998 16.2002 57.0198 15.6002C56.5398 15.1202 56.2998 14.4002 56.2998 13.5602C56.2998 12.7202 56.5398 12.0002 57.0198 11.5202C57.4998 10.9202 58.2198 10.6802 59.0598 10.6802C59.8998 10.6802 60.4998 10.9202 60.9798 11.5202C61.4598 12.0002 61.6998 12.7202 61.6998 13.5602ZM60.4998 13.5602C60.4998 13.0802 60.3798 12.6002 60.1398 12.2402C59.8998 11.7602 59.5398 11.6402 59.0598 11.6402C58.5798 11.6402 58.2198 11.8802 57.9798 12.2402C57.7398 12.6002 57.6198 13.0802 57.6198 13.5602C57.6198 14.0402 57.7398 14.5202 57.9798 14.8802C58.2198 15.3602 58.5798 15.4802 59.0598 15.4802C59.5398 15.4802 59.8998 15.2402 60.1398 14.7602C60.3798 14.5202 60.4998 14.0402 60.4998 13.5602Z"
    fill="white"
  />
  <path
    d="M70.9399 10.7998L69.2599 16.3198H68.1799L67.4599 13.9198C67.2199 13.3198 67.0999 12.7198 66.9799 12.1198C66.8599 12.7198 66.7399 13.3198 66.4999 13.9198L65.7799 16.3198H64.6999L62.8999 10.7998H64.0999L64.6999 13.4398C64.8199 14.0398 64.9399 14.6398 65.0599 15.2398C65.1799 14.7598 65.2999 14.1598 65.5399 13.4398L66.2599 10.7998H67.2199L67.9399 13.3198C68.1799 13.9198 68.2999 14.5198 68.4199 15.1198C68.5399 14.5198 68.6599 13.9198 68.7799 13.3198L69.4999 10.7998H70.9399Z"
    fill="white"
  />
  <path
    d="M77.18 16.3186H75.98V13.1986C75.98 12.2386 75.62 11.7586 74.9 11.7586C74.54 11.7586 74.3 11.8786 74.06 12.1186C73.82 12.3586 73.7 12.7186 73.7 13.0786V16.3186H72.5V12.3586C72.5 11.8786 72.5 11.3986 72.5 10.7986H73.58V11.6386C73.7 11.3986 73.94 11.1586 74.18 10.9186C74.54 10.6786 74.9 10.5586 75.26 10.5586C75.74 10.5586 76.22 10.6786 76.58 11.0386C77.06 11.3986 77.18 11.9986 77.18 12.8386V16.3186Z"
    fill="white"
  />
  <path
    d="M80.5398 16.3212H79.3398V8.28125H80.5398V16.3212Z"
    fill="white"
  />
  <path
    d="M87.7398 13.5602C87.7398 14.4002 87.4998 15.1202 87.0198 15.6002C86.5398 16.2002 85.8198 16.4402 84.9798 16.4402C84.1398 16.4402 83.5399 16.2002 83.0599 15.6002C82.5799 15.1202 82.3398 14.4002 82.3398 13.5602C82.3398 12.7202 82.5799 12.0002 83.0599 11.5202C83.5399 11.0402 84.2598 10.6802 85.0998 10.6802C85.9398 10.6802 86.5398 10.9202 87.0198 11.5202C87.4998 12.0002 87.7398 12.7202 87.7398 13.5602ZM86.5398 13.5602C86.5398 13.0802 86.4199 12.6002 86.1799 12.2402C85.9399 11.7602 85.5798 11.6402 85.0998 11.6402C84.6198 11.6402 84.2598 11.8802 84.0198 12.2402C83.7798 12.6002 83.6599 13.0802 83.6599 13.5602C83.6599 14.0402 83.7798 14.5202 84.0198 14.8802C84.2598 15.3602 84.6198 15.4802 85.0998 15.4802C85.5798 15.4802 85.9399 15.2402 86.1799 14.7602C86.4199 14.5202 86.5398 14.0402 86.5398 13.5602Z"
    fill="white"
  />
  <path
    d="M93.6202 16.3202H92.5402L92.4202 15.7202C92.0602 16.2002 91.4602 16.4402 90.8602 16.4402C90.3802 16.4402 89.9002 16.3202 89.6602 15.9602C89.4202 15.6002 89.1802 15.2402 89.1802 14.8802C89.1802 14.1602 89.4202 13.6802 90.0202 13.3202C90.6202 12.9602 91.3402 12.8402 92.4202 12.8402V12.7202C92.4202 12.0002 92.0602 11.6402 91.3402 11.6402C90.7402 11.6402 90.3802 11.7602 89.9002 12.0002L89.6602 11.1602C90.1402 10.8002 90.7402 10.6802 91.5802 10.6802C93.0202 10.6802 93.7402 11.4002 93.7402 12.9602V15.0002C93.6202 15.6002 93.6202 15.9602 93.6202 16.3202ZM92.4202 14.4002V13.5602C91.1002 13.5602 90.3802 13.9202 90.3802 14.6402C90.3802 14.8802 90.5002 15.1202 90.6202 15.2402C90.7402 15.3602 90.9802 15.4802 91.2202 15.4802C91.4602 15.4802 91.7002 15.3602 91.9402 15.2402C92.1802 15.1202 92.3002 14.8802 92.4202 14.6402C92.4202 14.6402 92.4202 14.5202 92.4202 14.4002Z"
    fill="white"
  />
  <path
    d="M100.58 16.3184H99.4999V15.4784C99.1399 16.1984 98.5399 16.4384 97.6999 16.4384C96.9799 16.4384 96.4999 16.1984 96.0199 15.7184C95.5399 15.2384 95.4199 14.5184 95.4199 13.6784C95.4199 12.8384 95.6599 12.1184 96.1399 11.5184C96.6199 11.0384 97.2199 10.7984 97.8199 10.7984C98.5399 10.7984 99.0199 11.0384 99.3799 11.5184V8.39844H100.58V14.8784C100.58 15.3584 100.58 15.8384 100.58 16.3184ZM99.3799 14.0384V13.0784C99.3799 12.9584 99.3799 12.8384 99.3799 12.7184C99.2599 12.4784 99.1399 12.2384 98.8999 11.9984C98.6599 11.7584 98.4199 11.7584 98.0599 11.7584C97.5799 11.7584 97.2199 11.9984 96.9799 12.3584C96.7399 12.7184 96.6199 13.1984 96.6199 13.7984C96.6199 14.3984 96.7399 14.7584 96.9799 15.1184C97.2199 15.4784 97.5799 15.7184 98.0599 15.7184C98.4199 15.7184 98.7799 15.5984 99.0199 15.2384C99.2599 14.7584 99.3799 14.3984 99.3799 14.0384Z"
    fill="white"
  />
  <path
    d="M111.02 13.5602C111.02 14.4002 110.78 15.1202 110.3 15.6002C109.82 16.2002 109.1 16.4402 108.26 16.4402C107.42 16.4402 106.82 16.2002 106.34 15.6002C105.86 15.1202 105.62 14.4002 105.62 13.5602C105.62 12.7202 105.86 12.0002 106.34 11.5202C106.82 10.9202 107.54 10.6802 108.38 10.6802C109.22 10.6802 109.82 10.9202 110.3 11.5202C110.78 12.0002 111.02 12.7202 111.02 13.5602ZM109.7 13.5602C109.7 13.0802 109.58 12.6002 109.34 12.2402C109.1 11.7602 108.74 11.6402 108.26 11.6402C107.78 11.6402 107.42 11.8802 107.18 12.2402C106.94 12.6002 106.82 13.0802 106.82 13.5602C106.82 14.0402 106.94 14.5202 107.18 14.8802C107.42 15.3602 107.78 15.4802 108.26 15.4802C108.74 15.4802 109.1 15.2402 109.34 14.7602C109.58 14.5202 109.7 14.0402 109.7 13.5602Z"
    fill="white"
  />
  <path
    d="M117.62 16.3186H116.42V13.1986C116.42 12.2386 116.06 11.7586 115.34 11.7586C114.98 11.7586 114.74 11.8786 114.5 12.1186C114.26 12.3586 114.14 12.7186 114.14 13.0786V16.3186H112.94V12.3586C112.94 11.8786 112.94 11.3986 112.94 10.7986H114.02V11.6386C114.14 11.3986 114.38 11.1586 114.62 10.9186C114.98 10.6786 115.34 10.5586 115.7 10.5586C116.18 10.5586 116.66 10.6786 117.02 11.0386C117.5 11.3986 117.62 11.9986 117.62 12.8386V16.3186Z"
    fill="white"
  />
  <path
    d="M125.78 11.76H124.46V14.4C124.46 15.12 124.7 15.36 125.18 15.36C125.42 15.36 125.54 15.36 125.78 15.36V16.32C125.54 16.44 125.18 16.44 124.82 16.44C124.34 16.44 123.98 16.32 123.74 15.96C123.5 15.72 123.38 15.12 123.38 14.52V11.76H122.54V10.8H123.38V9.83999L124.58 9.47998V10.8H125.9V11.76H125.78Z"
    fill="white"
  />
  <path
    d="M132.26 16.3212H131.06V13.2012C131.06 12.2412 130.7 11.7613 129.98 11.7613C129.38 11.7613 129.02 12.0012 128.78 12.6012C128.78 12.7212 128.78 12.8412 128.78 13.0812V16.3212H127.58V8.28125H128.78V11.6413C129.14 11.0413 129.74 10.6813 130.46 10.6813C130.94 10.6813 131.42 10.8013 131.66 11.1613C132.02 11.5213 132.26 12.2412 132.26 12.9612V16.3212Z"
    fill="white"
  />
  <path
    d="M138.86 13.3198C138.86 13.5598 138.86 13.6798 138.86 13.9198H135.26C135.26 14.5198 135.5 14.8798 135.74 15.1198C136.1 15.3598 136.46 15.4798 136.94 15.4798C137.54 15.4798 138.02 15.3598 138.38 15.2398L138.62 16.0798C138.14 16.3198 137.54 16.4398 136.82 16.4398C135.98 16.4398 135.26 16.1998 134.78 15.7198C134.3 15.2398 134.06 14.5198 134.06 13.6798C134.06 12.8398 134.3 12.1198 134.78 11.6398C135.26 11.0398 135.86 10.7998 136.7 10.7998C137.54 10.7998 138.14 11.0398 138.5 11.6398C138.74 11.9998 138.86 12.5998 138.86 13.3198ZM137.78 12.9598C137.78 12.5998 137.66 12.2398 137.54 11.9998C137.3 11.6398 137.06 11.5198 136.58 11.5198C136.22 11.5198 135.86 11.6398 135.62 11.9998C135.38 12.2398 135.26 12.5998 135.26 12.9598H137.78Z"
    fill="white"
  />
  <defs>
    <clipPath id="clip0">
      <rect
        width="153.6"
        height="48"
        fill="white"
        transform="translate(0.5)"
      />
    </clipPath>
  </defs>
</svg>