<svg width="22" height="16" viewBox="0 0 22 16" fill="none" xmlns="http://www.w3.org/2000/svg">
<path d="M21.7681 3.33437C21.7681 3.33437 21.5533 1.82187 20.8918 1.15156C20.0586 0.275 19.1222 0.275 18.6841 0.223437C15.6174 0 11.0043 0 11.0043 0H10.9957C10.9957 0 6.38266 0 3.29871 0.223437C2.8692 0.275 1.93282 0.275 1.09098 1.15156C0.438109 1.82187 0.223352 3.33437 0.223352 3.33437C0.223352 3.33437 0 5.12188 0 6.90078V8.56797C0 10.3469 0.223352 12.1258 0.223352 12.1258C0.223352 12.1258 0.438109 13.6383 1.09957 14.3086C1.93282 15.1852 3.03239 15.1594 3.52206 15.2453C5.28309 15.4172 10.9957 15.4688 10.9957 15.4688C10.9957 15.4688 15.6173 15.4602 18.6927 15.2367C19.1222 15.1852 20.0586 15.1852 20.9004 14.3086C21.5619 13.6383 21.7766 12.1258 21.7766 12.1258C21.7766 12.1258 22 10.3469 22 8.56797V6.90078C21.9914 5.12188 21.7681 3.33437 21.7681 3.33437ZM8.7279 10.5875V4.40859L14.6724 7.51094L8.72781 10.5875H8.7279Z" fill="url(#paint0_linear)"/>
<defs>
<linearGradient id="paint0_linear" x1="10.9956" y1="0" x2="10.9956" y2="15.4734" gradientUnits="userSpaceOnUse">
<stop stop-color="#E52D27"/>
<stop offset="1" stop-color="#BF171D"/>
</linearGradient>
</defs>
</svg>
