<svg width="22" height="22" viewBox="0 0 22 22" fill="none" xmlns="http://www.w3.org/2000/svg">
<g clip-path="url(#clip0)">
<path d="M20.7858 22.0001C21.4563 22.0001 22 21.4564 22 20.7859V1.21421C22 0.543555 21.4563 0 20.7858 0H1.21421C0.543469 0 0 0.543555 0 1.21421V20.7859C0 21.4564 0.543469 22.0001 1.21421 22.0001H20.7858Z" fill="#395185"/>
<path d="M14.1795 22.0015V13.4819H17.0392L17.4674 10.1617H14.1795V8.04184C14.1795 7.08055 14.4465 6.42545 15.825 6.42545L17.5832 6.42467V3.4551C17.279 3.41462 16.2354 3.32422 15.0212 3.32422C12.4863 3.32422 10.7508 4.87152 10.7508 7.71313V10.1617H7.88379V13.4819H10.7508V22.0015H14.1795Z" fill="white"/>
</g>
<defs>
<clipPath id="clip0">
<rect width="22" height="22" fill="white"/>
</clipPath>
</defs>
</svg>
