<svg width="155" height="48" viewBox="0 0 155 48" fill="none" xmlns="http://www.w3.org/2000/svg">
  <path d="M148.8 48H4.8C2.16 48 0 45.84 0 43.2V4.8C0 2.16 2.16 0 4.8 0H148.8C151.44 0 153.6 2.16 153.6 4.8V43.2C153.6 45.84 151.44 48 148.8 48Z" fill="black"/>
  <path fill-rule="evenodd" clip-rule="evenodd" d="M11.7598 23.5206V10.9206C11.7598 10.2006 12.3598 9.60059 12.9598 9.60059C13.5598 9.60059 13.7998 9.72059 14.1598 9.96059L37.3197 22.6806C37.7997 22.9206 38.0397 23.2806 38.0397 23.6406C38.0397 24.0006 37.7997 24.3606 37.3197 24.6006L14.1598 37.3206C13.9198 37.4406 13.5598 37.6806 12.9598 37.6806C12.3598 37.6806 11.7598 37.0806 11.7598 36.3606V23.5206Z" fill="url(#paint0_linear)"/>
  <path fill-rule="evenodd" clip-rule="evenodd" d="M26.7598 23.6406L12.7197 9.60059C12.8397 9.60059 12.8397 9.60059 12.9597 9.60059C13.5597 9.60059 13.7997 9.72059 14.1597 9.96059L31.1998 19.3206L26.7598 23.6406Z" fill="url(#paint1_linear)"/>
  <path fill-rule="evenodd" clip-rule="evenodd" d="M31.0798 27.8411L26.7598 23.5211L31.1998 19.0811L37.3198 22.4411C37.7998 22.6811 38.0398 23.0411 38.0398 23.4011C38.0398 23.7611 37.7998 24.1211 37.3198 24.3611L31.0798 27.8411Z" fill="url(#paint2_linear)"/>
  <path fill-rule="evenodd" clip-rule="evenodd" d="M12.8403 37.4395L26.7604 23.5195L31.0804 27.8395L14.1603 37.0795C13.8003 37.3195 13.5603 37.4395 12.8403 37.4395C12.9603 37.4395 12.9603 37.4395 12.8403 37.4395Z" fill="url(#paint3_linear)"/>
  <path fill-rule="evenodd" clip-rule="evenodd" d="M85.3199 40.6806C84.7198 40.2006 84.2398 39.3606 83.9998 38.8806L85.9198 38.0406C86.0398 38.2806 86.2799 38.6406 86.5198 39.0006C86.9998 39.4806 87.7198 39.9606 88.4398 39.9606C89.1598 39.9606 89.9998 39.6006 90.4798 39.0006C90.8398 38.4006 91.0798 37.8006 91.0798 36.9606V36.2406C89.6398 38.0406 86.6398 37.8006 84.9598 35.8806C83.1598 33.9606 83.1598 30.7206 84.9598 28.8006C86.7598 27.0006 89.3998 26.7606 90.9598 28.4406V27.6006H92.9998V36.6006C92.9998 38.8806 92.1598 40.2006 91.0798 41.0406C90.3598 41.6406 89.2799 41.8806 88.3199 41.8806C87.2398 41.7606 86.1599 41.4006 85.3199 40.6806ZM135.6 41.1606L137.64 36.3606L134.04 28.0806H136.08L138.6 33.9606L141.12 28.0806H143.16L137.64 41.1606H135.6ZM125.88 36.6006C125.28 36.0006 125.04 35.1606 125.04 34.3206C125.04 33.6006 125.28 32.8806 125.76 32.4006C126.6 31.5606 127.8 31.2006 129.12 31.2006C129.96 31.2006 130.68 31.3206 131.28 31.6806C131.28 30.2406 130.08 29.6406 129.12 29.6406C128.28 29.6406 127.44 30.1206 127.08 30.9606L125.28 30.2406C125.64 29.4006 126.6 27.8406 129 27.8406C130.2 27.8406 131.4 28.2006 132.12 29.0406C132.84 29.8806 133.08 30.8406 133.08 32.1606V37.2006H131.04V36.3606C130.8 36.7206 130.32 36.9606 129.96 37.2006C129.48 37.4406 128.88 37.5606 128.28 37.5606C127.56 37.4406 126.48 37.2006 125.88 36.6006ZM61.9198 32.2806C61.9198 29.8806 63.7198 27.2406 66.9598 27.2406C70.0798 27.2406 71.9998 29.8806 71.9998 32.2806C71.9998 34.6806 70.1998 37.3206 66.9598 37.3206C63.7198 37.3206 61.9198 34.6806 61.9198 32.2806ZM72.7198 32.2806C72.7198 29.8806 74.5198 27.2406 77.7598 27.2406C80.8798 27.2406 82.7999 29.8806 82.7999 32.2806C82.7999 34.6806 80.9998 37.3206 77.7598 37.3206C74.6398 37.3206 72.7198 34.6806 72.7198 32.2806ZM48.3598 34.9206C45.3598 31.9206 45.4798 27.0006 48.4798 23.8806C50.0398 22.3206 51.9598 21.6006 53.9998 21.6006C55.9198 21.6006 57.8398 22.3206 59.2798 23.7606L57.8398 25.3206C55.6798 23.1606 52.1998 23.2806 50.1598 25.4406C47.9998 27.7206 47.9998 31.2006 50.1598 33.4806C52.3198 35.7606 55.9198 35.8806 58.0798 33.6006C58.7998 32.8806 59.0398 31.9206 59.1598 30.9606H54.1198V28.8006H61.1998C61.3198 29.2806 61.3198 29.8806 61.3198 30.4806C61.3198 32.2806 60.5998 34.0806 59.3998 35.2806C58.0798 36.6006 56.1598 37.3206 54.2398 37.3206C52.0798 37.2006 49.9198 36.4806 48.3598 34.9206ZM99.1199 35.7606C97.3198 33.8406 97.3198 30.6006 99.1199 28.5606C100.92 26.6406 103.92 26.6406 105.6 28.5606C106.2 29.1606 106.56 30.0006 106.92 30.8406L100.32 33.6006C100.68 34.4406 101.52 35.1606 102.72 35.1606C103.8 35.1606 104.52 34.8006 105.24 33.7206L107.04 34.9206C106.8 35.1606 106.56 35.4006 106.44 35.6406C104.4 37.6806 100.92 37.6806 99.1199 35.7606ZM111.6 37.2006V23.8806H115.92C118.44 23.8806 120.48 25.6806 120.48 27.8406C120.48 30.0006 118.68 31.8006 116.4 31.8006H113.76V37.0806H111.6V37.2006ZM121.68 37.2006V23.8806H123.72V37.2006H121.68ZM94.5598 36.9606V22.0806H96.7198V36.9606H94.5598ZM131.16 33.2406C130.68 32.8806 129.96 32.7606 129.24 32.7606C127.8 32.7606 126.96 33.4806 126.96 34.3206C126.96 35.1606 127.8 35.6406 128.64 35.6406C129.84 35.6406 131.16 34.6806 131.16 33.2406ZM69.7198 32.2806C69.7198 30.8406 68.7598 29.2806 66.9598 29.2806C65.1598 29.2806 64.1998 30.8406 64.1998 32.2806C64.1998 33.7206 65.1598 35.2806 66.9598 35.2806C68.6398 35.2806 69.7198 33.7206 69.7198 32.2806ZM80.5198 32.2806C80.5198 30.8406 79.5598 29.2806 77.7598 29.2806C75.9598 29.2806 74.9998 30.8406 74.9998 32.2806C74.9998 33.7206 75.9598 35.2806 77.7598 35.2806C79.5598 35.2806 80.5198 33.7206 80.5198 32.2806ZM91.1998 33.1206C91.1998 33.0006 91.1998 32.8806 91.3199 32.7606C91.3199 32.6406 91.3199 32.4006 91.3199 32.2806C91.3199 32.1606 91.3199 31.9206 91.3199 31.8006V31.6806C91.3199 31.5606 91.1998 31.3206 91.1998 31.2006C90.8398 30.0006 89.7598 29.1606 88.6798 29.1606C87.2398 29.1606 86.0398 30.6006 86.0398 32.1606C86.0398 33.8406 87.2398 35.1606 88.7999 35.1606C89.7598 35.2806 90.7198 34.4406 91.1998 33.1206ZM99.9598 32.0406L104.4 30.1206C103.92 29.2806 103.2 29.0406 102.6 29.0406C100.8 29.1606 99.7198 31.0806 99.9598 32.0406ZM118.32 27.9606C118.32 26.7606 117.36 25.9206 116.04 25.9206H113.64V30.1206H116.16C117.36 30.1206 118.32 29.1606 118.32 27.9606Z" fill="white"/>
  <path fill-rule="evenodd" clip-rule="evenodd" d="M137.16 38.7596H137.041V38.6396H137.16H137.041V38.7596H137.16Z" fill="white"/>
  <path fill-rule="evenodd" clip-rule="evenodd" d="M137.4 38.7596C137.4 38.6396 137.4 38.6396 137.4 38.7596C137.28 38.6396 137.28 38.6396 137.4 38.7596C137.28 38.7596 137.28 38.7596 137.4 38.7596ZM137.4 38.6396C137.4 38.7596 137.4 38.7596 137.4 38.6396C137.4 38.7596 137.28 38.7596 137.4 38.6396C137.4 38.6396 137.28 38.6396 137.4 38.6396Z" fill="white"/>
  <path fill-rule="evenodd" clip-rule="evenodd" d="M137.52 38.6396H137.4H137.52V38.7596V38.6396Z" fill="white"/>
  <path d="M46.6802 12.1196C46.6802 9.95965 48.2402 8.63965 50.1602 8.63965C51.4802 8.63965 52.3202 9.23963 52.9202 10.0796L51.9602 10.6796C51.6002 10.1996 51.0002 9.83965 50.1602 9.83965C48.8402 9.83965 47.8802 10.7996 47.8802 12.2396C47.8802 13.6796 48.8402 14.6396 50.1602 14.6396C50.8802 14.6396 51.4802 14.2796 51.7202 14.0396V12.9596H49.8002V11.8796H53.0402V14.3996C52.4402 15.1197 51.4802 15.5997 50.2802 15.5997C48.2402 15.5997 46.6802 14.1596 46.6802 12.1196Z" fill="white"/>
  <path d="M54.4795 15.4778V8.75781H59.0395V9.83781H55.5595V11.5178H58.9195V12.5978H55.5595V14.5178H59.0395V15.5978L54.4795 15.4778Z" fill="white"/>
  <path d="M62.3994 15.4778V9.83781H60.3594V8.75781H65.6394V9.83781H63.5994V15.4778H62.3994Z" fill="white"/>
  <path d="M69.7202 15.4778V8.75781H70.9202V15.4778H69.7202Z" fill="white"/>
  <path d="M74.1601 15.4778V9.83781H72.1201V8.75781H77.4001V9.83781H75.3601V15.4778H74.1601Z" fill="white"/>
  <path d="M81.2402 12.1196C81.2402 10.0796 82.6802 8.63965 84.7202 8.63965C86.7602 8.63965 88.2002 10.0796 88.2002 12.1196C88.2002 14.1596 86.7602 15.5997 84.7202 15.5997C82.6802 15.5997 81.2402 14.0396 81.2402 12.1196ZM86.8802 12.1196C86.8802 10.6796 86.0402 9.71965 84.6002 9.71965C83.2802 9.71965 82.3202 10.7996 82.3202 12.1196C82.3202 13.5596 83.1602 14.5196 84.6002 14.5196C86.0402 14.5196 86.8802 13.4396 86.8802 12.1196Z" fill="white"/>
  <path d="M94.2005 15.4778L90.7205 10.6778V15.4778H89.5205V8.75781H90.7205L94.2005 13.4378V8.75781H95.4005V15.4778H94.2005Z" fill="white"/>
  <defs>
  <linearGradient id="paint0_linear" x1="19.5207" y1="7.88891" x2="26.2385" y2="35.478" gradientUnits="userSpaceOnUse">
  <stop stop-color="#006884"/>
  <stop offset="1" stop-color="#8AD1D0"/>
  </linearGradient>
  <linearGradient id="paint1_linear" x1="11.3286" y1="11.8131" x2="29.6357" y2="21.7101" gradientUnits="userSpaceOnUse">
  <stop stop-color="#24BBB6"/>
  <stop offset="1" stop-color="#DBE692"/>
  </linearGradient>
  <linearGradient id="paint2_linear" x1="32.3932" y1="28.3452" x2="32.3932" y2="18.8072" gradientUnits="userSpaceOnUse">
  <stop stop-color="#FCC072"/>
  <stop offset="1" stop-color="#F58A5B"/>
  </linearGradient>
  <linearGradient id="paint3_linear" x1="14.874" y1="39.9225" x2="29.336" y2="25.2042" gradientUnits="userSpaceOnUse">
  <stop stop-color="#712B8F"/>
  <stop offset="1" stop-color="#EA1D27"/>
  </linearGradient>
  </defs>
</svg>
